<svg width="500" height="500" viewBox="0 0 500 500" fill="none" xmlns="http://www.w3.org/2000/svg">
<rect y="100" width="100" height="100" fill="black"/>
<rect y="200" width="100" height="100" fill="black"/>
<rect x="200" y="200" width="100" height="100" fill="black"/>
<rect y="300" width="100" height="100" fill="black"/>
<rect x="100" y="400" width="100" height="100" fill="black"/>
<rect x="100" width="100" height="100" fill="black"/>
<rect width="100" height="100" transform="matrix(-1 0 0 1 500 100)" fill="black"/>
<rect width="100" height="100" transform="matrix(-1 0 0 1 500 200)" fill="black"/>
<rect width="100" height="100" transform="matrix(-1 0 0 1 500 300)" fill="black"/>
<rect width="100" height="100" transform="matrix(-1 0 0 1 400 400)" fill="black"/>
<rect width="100" height="100" transform="matrix(-1 0 0 1 400 0)" fill="black"/>
</svg>
